<svg width="20" height="20" viewBox="0 0 20 20" fill="none" xmlns="http://www.w3.org/2000/svg">
<path fill-rule="evenodd" clip-rule="evenodd" d="M12.931 12.923C12.785 13.069 12.593 13.143 12.401 13.143C12.208 13.143 12.017 13.069 11.87 12.923L9.997 11.05L8.13 12.917C7.984 13.064 7.792 13.137 7.6 13.137C7.409 13.137 7.216 13.064 7.07 12.917C6.777 12.624 6.777 12.15 7.07 11.857L8.936 9.989L7.07 8.123C6.777 7.83 6.777 7.356 7.07 7.063C7.363 6.77 7.837 6.77 8.13 7.063L9.996 8.929L11.86 7.065C12.153 6.772 12.627 6.772 12.92 7.065C13.213 7.358 13.213 7.832 12.92 8.125L11.057 9.989L12.931 11.862C13.224 12.155 13.224 12.63 12.931 12.923ZM10 0.25C2.802 0.25 0.25 2.802 0.25 10C0.25 17.198 2.802 19.75 10 19.75C17.199 19.75 19.75 17.198 19.75 10C19.75 2.802 17.199 0.25 10 0.25Z" fill="#070F2A"/>
</svg>
